<svg width="64" height="64" viewBox="0 0 64 64" fill="none" xmlns="http://www.w3.org/2000/svg">
<g clip-path="url(#clip0_1374_686)">
<circle cx="32" cy="32" r="31" fill="#F5EDED" stroke="#6482AD" stroke-width="2"/>
<path d="M35.45 24.35V50H29.25V24.35H35.45ZM36.3 16.875C36.3 17.4083 36.1917 17.9083 35.975 18.375C35.7583 18.8417 35.4667 19.25 35.1 19.6C34.75 19.95 34.3333 20.2333 33.85 20.45C33.3667 20.65 32.85 20.75 32.3 20.75C31.7667 20.75 31.2583 20.65 30.775 20.45C30.3083 20.2333 29.9 19.95 29.55 19.6C29.2 19.25 28.9167 18.8417 28.7 18.375C28.5 17.9083 28.4 17.4083 28.4 16.875C28.4 16.325 28.5 15.8083 28.7 15.325C28.9167 14.8417 29.2 14.425 29.55 14.075C29.9 13.725 30.3083 13.45 30.775 13.25C31.2583 13.0333 31.7667 12.925 32.3 12.925C32.85 12.925 33.3667 13.0333 33.85 13.25C34.3333 13.45 34.75 13.725 35.1 14.075C35.4667 14.425 35.7583 14.8417 35.975 15.325C36.1917 15.8083 36.3 16.325 36.3 16.875Z" fill="#6482AD"/>
</g>
<defs>
<clipPath id="clip0_1374_686">
<rect width="64" height="64" fill="white"/>
</clipPath>
</defs>
</svg>
