<svg width="64" height="64" viewBox="0 0 64 64" fill="none" xmlns="http://www.w3.org/2000/svg">
<g clip-path="url(#clip0_1360_269)">
<circle cx="32" cy="32" r="31" fill="#F5EDED" stroke="#6482AD" stroke-width="2"/>
<circle cx="32" cy="32" r="15" fill="#6482AD" stroke="#6482AD" stroke-width="2"/>
<path d="M29.3904 12.7207L28 17.5L24.8 18.4L20.6447 16.3223C20.2597 16.1298 19.7947 16.2053 19.4903 16.5097L17.3097 18.6903C17.0053 18.9947 16.9298 19.4597 17.1223 19.8447L19.2 24L17.673 27.1439C17.5618 27.3727 17.3677 27.5505 17.1302 27.6412L12.6433 29.3544C12.2559 29.5023 12 29.8739 12 30.2886V33.7114C12 34.1261 12.2559 34.4977 12.6433 34.6456L17.5 36.5L18.4 39.2L15.7591 42.5011C15.4408 42.899 15.4726 43.4726 15.8329 43.8329L18.5671 46.5671C18.9274 46.9274 19.501 46.9592 19.8989 46.6409L23.2 44L28 46.4L29.3928 51.2747C29.5154 51.704 29.9078 52 30.3543 52H33.6457C34.0922 52 34.4846 51.704 34.6072 51.2747L36 46.4L40.8 44L44.1011 46.6409C44.499 46.9592 45.0726 46.9274 45.4329 46.5671L48.1671 43.8329C48.5274 43.4726 48.5592 42.899 48.2409 42.5011L45.6 39.2L46.5 36.5L51.3567 34.6456C51.7441 34.4977 52 34.1261 52 33.7114V30.2886C52 29.8739 51.7441 29.5023 51.3567 29.3544L46.5 27.5L44.8 24L46.8777 19.8447C47.0702 19.4597 46.9947 18.9947 46.6903 18.6903L44.5097 16.5097C44.2053 16.2053 43.7403 16.1298 43.3553 16.3223L39.2 18.4L36.5 18.2L34.63 12.6792C34.4925 12.2732 34.1116 12 33.6829 12H30.3505C29.9058 12 29.5146 12.2937 29.3904 12.7207Z" fill="#6482AD" stroke="#6482AD" stroke-width="2"/>
<circle cx="32" cy="32" r="7" fill="#F5EDED"/>
</g>
<defs>
<clipPath id="clip0_1360_269">
<rect width="64" height="64" fill="white"/>
</clipPath>
</defs>
</svg>
